<svg viewBox="0 0 477 94" preserveAspectRatio="xMidYMid meet" data-bbox="-1 -1 479 96" xmlns="http://www.w3.org/2000/svg" height="94" width="477" data-type="ugc" role="presentation" aria-hidden="true">
    <g>
        <path fill="none" d="M478-1v96H-1V-1h479z"></path>
        <path d="M295.87 1.8c-17.637 0-32.845 10.154-40.242 24.924 8.964 12.235 15.527 21.059 23.562 25.957-.632-1.824-1.045-3.756-1.045-5.8 0-9.773 7.95-17.723 17.726-17.723 9.777 0 17.724 7.95 17.724 17.724 0 9.777-7.946 17.728-17.724 17.728-19.14 0-29.404-10.056-43.472-29.498-11.953-16.108-24.51-32.8-52.113-32.8-24.895 0-45.08 20.18-45.08 45.076 0 24.895 20.185 45.086 45.08 45.086 19.695 0 36.384-12.655 42.526-30.242 11.643 15.09 25.617 29.73 53.059 29.73 24.896 0 45.078-20.176 45.078-45.08 0-24.897-20.183-45.082-45.078-45.082m-95.585 63.316c-9.777 0-17.724-7.954-17.724-17.73 0-9.767 7.947-17.722 17.724-17.722s17.723 7.955 17.723 17.723c0 9.775-7.946 17.729-17.723 17.729" fill="#3A6393"></path>
        <path d="M72.415 31.886c-5.743-3.478-14.887-6.318-16.97-7.168-2.087-.852-4.001-1.471-5.742-1.851-1.745-.385-3.32-.617-4.721-.704a63.122 63.122 0 0 0-3.636-.128c-3.235 0-5.742.47-7.53 1.406-1.786.936-2.68 2.509-2.68 4.719 0 1.959 1.105 3.575 3.318 4.85 2.21 1.274 6.338 2.384 12.378 3.315 4.506.765 8.59 1.787 12.248 3.066 3.656 1.273 6.762 2.996 9.314 5.165 2.553 2.17 3.036 3.117 4.44 6.263 1.402 3.148 2.415 8.088 2.415 13.36 0 4.593-1.007 10.323-2.834 13.81-1.832 3.488-4.9 5.84-8.134 8.267-3.236 2.424-5.243 3-9.664 4.235-4.424 1.23-9.231 1.853-14.418 1.853-3.063 0-6.255-.15-9.57-.447a58.455 58.455 0 0 1-9.952-1.786c-3.318-.894-6.62-2.172-9.89-3.83-3.276-1.655-6.445-3.891-9.506-6.694l11.61-17.611c2.38 2.126 4.787 3.847 7.21 5.167 2.425 1.322 4.803 2.34 7.144 3.063 2.34.724 4.596 1.208 6.765 1.464 2.169.257 4.23.385 6.188.385 3.996 0 6.867-.724 8.61-2.17 1.745-1.446 2.618-3.145 2.618-5.103 0-2.041-.704-3.767-2.105-5.168-1.405-1.402-4.362-2.615-8.871-3.635-5.02-1.104-9.592-2.21-13.715-3.318-4.127-1.104-7.657-2.594-10.59-4.468-2.937-1.864-5.19-4.291-6.762-7.27-1.574-2.976-2.36-6.933-2.36-11.868 0-4.762.932-8.885 2.806-12.375 1.87-3.49 4.338-6.356 7.402-8.614 3.06-2.251 6.525-3.912 10.398-4.975a44.758 44.758 0 0 1 11.928-1.594c5.7 0 11.4.659 17.099 1.978 5.696 1.317 10.735 3.832 15.758 7.064v21.347z" fill="#3A6393"></path>
        <path d="M475.544 55.654c0 4.854-.74 9.512-2.213 13.979-1.472 4.465-3.772 8.407-6.893 11.832-3.118 3.427-7.131 6.156-12.026 8.19-4.9 2.04-10.73 3.055-17.491 3.055-6.76 0-12.505-.974-17.227-2.923-4.724-1.95-8.58-4.613-11.571-7.995-2.99-3.383-5.157-7.305-6.502-11.77-1.347-4.46-2.014-9.21-2.014-14.238V1.564h26.004v55.91c0 9.535 3.988 14.304 11.962 14.304 1.905 0 3.595-.39 5.067-1.171a10.593 10.593 0 0 0 3.71-3.251c.998-1.387 1.755-2.945 2.275-4.68.519-1.733.782-3.594.782-5.591V1.565h26.136v54.089z" fill="#3A6393"></path>
        <path d="M364.126 1.564v57.6c0 3.643-1.022 6.35-3.058 8.128-2.036 1.779-4.357 2.665-6.958 2.665-1.821 0-3.833-.324-6.046-.974-1.228-.364-2.52-1.064-3.868-2.081a54.123 54.123 0 0 1-12.791 19.118c.24.192.484.403.732.584 2.253 1.644 4.632 2.925 7.153 3.835a33.789 33.789 0 0 0 7.8 1.817c2.683.304 5.46.453 8.325.453 3.98 0 8.015-.517 12.092-1.56a30.459 30.459 0 0 0 11.112-5.395c3.338-2.556 6.048-6.001 8.125-10.336 2.085-4.335 3.123-9.797 3.123-16.387V1.564h-25.741z" fill="#3A6393"></path>
        <path d="M156.75 16.94V1.503h-25.934v34.144h-22.937V1.502H81.684v90.705h26.195V57.412h22.937v34.795h25.934V76.559a53.755 53.755 0 0 1-8.976-29.804 53.778 53.778 0 0 1 8.976-29.814z" fill="#3A6393"></path>
    </g>
</svg>